HIERARCHY
ROOT Hips
{
  OFFSET -259.197 79.0584 1653.23
  CHANNELS 6 Xposition Yposition Zposition Zrotation Xrotation Yrotation
  JOINT Spine
  {
    OFFSET 0 8 0
    CHANNELS 6 Xposition Yposition Zposition Zrotation Xrotation Yrotation
    JOINT Spine1
    {
      OFFSET 0 8 0
      CHANNELS 6 Xposition Yposition Zposition Zrotation Xrotation Yrotation
      JOINT Spine2
      {
        OFFSET 0 8 0
        CHANNELS 6 Xposition Yposition Zposition Zrotation Xrotation Yrotation
        JOINT Spine3
        {
          OFFSET 0 8 0
          CHANNELS 6 Xposition Yposition Zposition Zrotation Xrotation Yrotation
          JOINT Neck
          {
            OFFSET 0 17 0
            CHANNELS 6 Xposition Yposition Zposition Zrotation Xrotation Yrotation
            JOINT Head
            {
              OFFSET 0 10.8 0
              CHANNELS 6 Xposition Yposition Zposition Zrotation Xrotation Yrotation
              End Site
              {
                OFFSET 0 20.25 0
              }
            }
          }
          JOINT LeftShoulder
          {
            OFFSET 5 17 0
            CHANNELS 6 Xposition Yposition Zposition Zrotation Xrotation Yrotation
            JOINT LeftShoulder2
            {
              OFFSET 6.45 0 0
              CHANNELS 6 Xposition Yposition Zposition Zrotation Xrotation Yrotation
              JOINT LeftArm
              {
                OFFSET 6.45 0 0
                CHANNELS 6 Xposition Yposition Zposition Zrotation Xrotation Yrotation
                JOINT LeftForeArm
                {
                  OFFSET 0 -32.4 -2
                  CHANNELS 6 Xposition Yposition Zposition Zrotation Xrotation Yrotation
                  JOINT LeftHand
                  {
                    OFFSET 0 -25.65 2
                    CHANNELS 6 Xposition Yposition Zposition Zrotation Xrotation Yrotation
                    JOINT LeftHandThumb1
                    {
                      OFFSET -0.5 -1.5 2.65
                      CHANNELS 6 Xposition Yposition Zposition Zrotation Xrotation Yrotation
                      JOINT LeftHandThumb2
                      {
                        OFFSET 0 -3.8 3.7
                        CHANNELS 6 Xposition Yposition Zposition Zrotation Xrotation Yrotation
                        JOINT LeftHandThumb3
                        {
                          OFFSET 0 -3 2.7
                          CHANNELS 6 Xposition Yposition Zposition Zrotation Xrotation Yrotation
                          End Site
                          {
                            OFFSET 0 -2.3 1.8
                          }
                        }
                      }
                    }
                    JOINT LeftHandIndex
                    {
                      OFFSET 0 -1.9 1.6
                      CHANNELS 6 Xposition Yposition Zposition Zrotation Xrotation Yrotation
                      JOINT LeftHandIndex1
                      {
                        OFFSET 0 -8.3 1.9
                        CHANNELS 6 Xposition Yposition Zposition Zrotation Xrotation Yrotation
                        JOINT LeftHandIndex2
                        {
                          OFFSET 0 -4.5 0
                          CHANNELS 6 Xposition Yposition Zposition Zrotation Xrotation Yrotation
                          JOINT LeftHandIndex3
                          {
                            OFFSET 0 -3.4 0
                            CHANNELS 6 Xposition Yposition Zposition Zrotation Xrotation Yrotation
                            End Site
                            {
                              OFFSET 0 -2.6 0
                            }
                          }
                        }
                      }
                    }
                    JOINT LeftHandMiddle
                    {
                      OFFSET -0.25 -2.2 0.4
                      CHANNELS 6 Xposition Yposition Zposition Zrotation Xrotation Yrotation
                      JOINT LeftHandMiddle1
                      {
                        OFFSET 0 -8.3 1
                        CHANNELS 6 Xposition Yposition Zposition Zrotation Xrotation Yrotation
                        JOINT LeftHandMiddle2
                        {
                          OFFSET 0 -4.65 0
                          CHANNELS 6 Xposition Yposition Zposition Zrotation Xrotation Yrotation
                          JOINT LeftHandMiddle3
                          {
                            OFFSET 0 -3.3 0
                            CHANNELS 6 Xposition Yposition Zposition Zrotation Xrotation Yrotation
                            End Site
                            {
                              OFFSET 0 -2.7 0
                            }
                          }
                        }
                      }
                    }
                    JOINT LeftHandRing
                    {
                      OFFSET -0.5 -2.15 -0.8
                      CHANNELS 6 Xposition Yposition Zposition Zrotation Xrotation Yrotation
                      JOINT LeftHandRing1
                      {
                        OFFSET 0 -7.75 -0.2
                        CHANNELS 6 Xposition Yposition Zposition Zrotation Xrotation Yrotation
                        JOINT LeftHandRing2
                        {
                          OFFSET 0 -3.8 0
                          CHANNELS 6 Xposition Yposition Zposition Zrotation Xrotation Yrotation
                          JOINT LeftHandRing3
                          {
                            OFFSET 0 -3.4 0
                            CHANNELS 6 Xposition Yposition Zposition Zrotation Xrotation Yrotation
                            End Site
                            {
                              OFFSET 0 -2.6 0
                            }
                          }
                        }
                      }
                    }
                    JOINT LeftHandPinky
                    {
                      OFFSET -0.75 -1.75 -1.85
                      CHANNELS 6 Xposition Yposition Zposition Zrotation Xrotation Yrotation
                      JOINT LeftHandPinky1
                      {
                        OFFSET 0 -7.15 -1
                        CHANNELS 6 Xposition Yposition Zposition Zrotation Xrotation Yrotation
                        JOINT LeftHandPinky2
                        {
                          OFFSET 0 -3 0
                          CHANNELS 6 Xposition Yposition Zposition Zrotation Xrotation Yrotation
                          JOINT LeftHandPinky3
                          {
                            OFFSET 0 -2.35 0
                            CHANNELS 6 Xposition Yposition Zposition Zrotation Xrotation Yrotation
                            End Site
                            {
                              OFFSET 0 -2.1 0
                            }
                          }
                        }
                      }
                    }
                  }
                }
              }
            }
          }
          JOINT RightShoulder
          {
            OFFSET -5 17 0
            CHANNELS 6 Xposition Yposition Zposition Zrotation Xrotation Yrotation
            JOINT RightShoulder2
            {
              OFFSET -6.45 0 0
              CHANNELS 6 Xposition Yposition Zposition Zrotation Xrotation Yrotation
              JOINT RightArm
              {
                OFFSET -6.45 0 0
                CHANNELS 6 Xposition Yposition Zposition Zrotation Xrotation Yrotation
                JOINT RightForeArm
                {
                  OFFSET 0 -32.4 -2
                  CHANNELS 6 Xposition Yposition Zposition Zrotation Xrotation Yrotation
                  JOINT RightHand
                  {
                    OFFSET 0 -25.65 2
                    CHANNELS 6 Xposition Yposition Zposition Zrotation Xrotation Yrotation
                    JOINT RightHandThumb1
                    {
                      OFFSET 0.5 -1.5 2.65
                      CHANNELS 6 Xposition Yposition Zposition Zrotation Xrotation Yrotation
                      JOINT RightHandThumb2
                      {
                        OFFSET 0 -3.8 3.7
                        CHANNELS 6 Xposition Yposition Zposition Zrotation Xrotation Yrotation
                        JOINT RightHandThumb3
                        {
                          OFFSET 0 -3 2.7
                          CHANNELS 6 Xposition Yposition Zposition Zrotation Xrotation Yrotation
                          End Site
                          {
                            OFFSET 0 -2.3 1.8
                          }
                        }
                      }
                    }
                    JOINT RightHandIndex
                    {
                      OFFSET 0 -1.9 1.6
                      CHANNELS 6 Xposition Yposition Zposition Zrotation Xrotation Yrotation
                      JOINT RightHandIndex1
                      {
                        OFFSET 0 -8.3 1.9
                        CHANNELS 6 Xposition Yposition Zposition Zrotation Xrotation Yrotation
                        JOINT RightHandIndex2
                        {
                          OFFSET 0 -4.5 0
                          CHANNELS 6 Xposition Yposition Zposition Zrotation Xrotation Yrotation
                          JOINT RightHandIndex3
                          {
                            OFFSET 0 -3.4 0
                            CHANNELS 6 Xposition Yposition Zposition Zrotation Xrotation Yrotation
                            End Site
                            {
                              OFFSET 0 -2.6 0
                            }
                          }
                        }
                      }
                    }
                    JOINT RightHandMiddle
                    {
                      OFFSET 0.25 -2.2 0.4
                      CHANNELS 6 Xposition Yposition Zposition Zrotation Xrotation Yrotation
                      JOINT RightHandMiddle1
                      {
                        OFFSET 0 -8.3 1
                        CHANNELS 6 Xposition Yposition Zposition Zrotation Xrotation Yrotation
                        JOINT RightHandMiddle2
                        {
                          OFFSET 0 -4.65 0
                          CHANNELS 6 Xposition Yposition Zposition Zrotation Xrotation Yrotation
                          JOINT RightHandMiddle3
                          {
                            OFFSET 0 -3.3 0
                            CHANNELS 6 Xposition Yposition Zposition Zrotation Xrotation Yrotation
                            End Site
                            {
                              OFFSET 0 -2.7 0
                            }
                          }
                        }
                      }
                    }
                    JOINT RightHandRing
                    {
                      OFFSET 0.5 -2.15 -0.8
                      CHANNELS 6 Xposition Yposition Zposition Zrotation Xrotation Yrotation
                      JOINT RightHandRing1
                      {
                        OFFSET 0 -7.75 -0.2
                        CHANNELS 6 Xposition Yposition Zposition Zrotation Xrotation Yrotation
                        JOINT RightHandRing2
                        {
                          OFFSET 0 -3.8 0
                          CHANNELS 6 Xposition Yposition Zposition Zrotation Xrotation Yrotation
                          JOINT RightHandRing3
                          {
                            OFFSET 0 -3.4 0
                            CHANNELS 6 Xposition Yposition Zposition Zrotation Xrotation Yrotation
                            End Site
                            {
                              OFFSET 0 -2.6 0
                            }
                          }
                        }
                      }
                    }
                    JOINT RightHandPinky
                    {
                      OFFSET 0.75 -1.75 -1.85
                      CHANNELS 6 Xposition Yposition Zposition Zrotation Xrotation Yrotation
                      JOINT RightHandPinky1
                      {
                        OFFSET 0 -7.15 -1
                        CHANNELS 6 Xposition Yposition Zposition Zrotation Xrotation Yrotation
                        JOINT RightHandPinky2
                        {
                          OFFSET 0 -3 0
                          CHANNELS 6 Xposition Yposition Zposition Zrotation Xrotation Yrotation
                          JOINT RightHandPinky3
                          {
                            OFFSET 0 -2.35 0
                            CHANNELS 6 Xposition Yposition Zposition Zrotation Xrotation Yrotation
                            End Site
                            {
                              OFFSET 0 -2.1 0
                            }
                          }
                        }
                      }
                    }
                  }
                }
              }
            }
          }
        }
      }
    }
  }
  JOINT LeftUpLeg
  {
    OFFSET 8 0 0
    CHANNELS 6 Xposition Yposition Zposition Zrotation Xrotation Yrotation
    JOINT LeftLeg
    {
      OFFSET 0 -45 -1
      CHANNELS 6 Xposition Yposition Zposition Zrotation Xrotation Yrotation
      JOINT LeftFoot
      {
        OFFSET 0 -41 -2
        CHANNELS 6 Xposition Yposition Zposition Zrotation Xrotation Yrotation
        JOINT LeftToeBase
        {
          OFFSET 0 -7.5 12.5
          CHANNELS 6 Xposition Yposition Zposition Zrotation Xrotation Yrotation
          JOINT LeftFootToe
          {
            OFFSET 0 0 4
            CHANNELS 6 Xposition Yposition Zposition Zrotation Xrotation Yrotation
            End Site
            {
              OFFSET 0 0 0
            }
          }
        }
      }
    }
  }
  JOINT RightUpLeg
  {
    OFFSET -8 0 0
    CHANNELS 6 Xposition Yposition Zposition Zrotation Xrotation Yrotation
    JOINT RightLeg
    {
      OFFSET 0 -45 -1
      CHANNELS 6 Xposition Yposition Zposition Zrotation Xrotation Yrotation
      JOINT RightFoot
      {
        OFFSET 0 -41 -2
        CHANNELS 6 Xposition Yposition Zposition Zrotation Xrotation Yrotation
        JOINT RightToeBase
        {
          OFFSET 0 -7.5 12.5
          CHANNELS 6 Xposition Yposition Zposition Zrotation Xrotation Yrotation
          JOINT RightFootToe
          {
            OFFSET 0 0 4
            CHANNELS 6 Xposition Yposition Zposition Zrotation Xrotation Yrotation
            End Site
            {
              OFFSET 0 0 0
            }
          }
        }
      }
    }
  }
}
MOTION
Frames:	3
Frame Time:	0.0111111
-258.689 72.0293 1660.1 -5.36084 17.1174 -177.848 1.13687e-13 8 0 4.59905 15.9844 -16.6804 0 8 0 0.603312 9.30504 1.00247 5.68434e-14 8 0 0.316847 4.65821 0.512747 0 8 0 0.315847 4.64339 0.511071 5.68434e-14 17 4.54747e-13 -0.115016 11.8271 -2.4654 5.68434e-14 10.8 0 0.61995 27.8148 -6.07906 5 17 -2.27374e-13 -0.307207 -2.26026 7.35878 6.45 -5.68434e-14 0 -0.935381 0.730552 5.31068 6.45 5.68434e-14 -2.27374e-13 56.5711 20.6408 1.94919 0 -32.4 -2 -82.6355 -67.5194 -101.356 1.13687e-13 -25.65 2 -7.10414 -9.61527 -21.2279 -0.5 -1.5 2.65 -2.10261 -31.1821 166.894 0 -3.8 3.7 -0.0599658 51.0657 0.00757177 2.27374e-13 -3 2.7 -0.0500336 67.3659 0.046659 0 -1.9 1.6 -3.18055e-15 1.78906e-15 1.98785e-15 0 -8.3 1.9 -57.6666 15.4276 9.9532 0 -4.5 0 -70.2523 0.00646803 -0.00738983 -2.84217e-14 -3.4 1.7053e-13 -52.1742 0.000227592 0.00627037 -0.25 -2.2 0.4 -3.18055e-15 1.78906e-15 1.98785e-15 0 -8.3 1 -55.8798 9.91787 7.57576 2.27374e-13 -4.65 0 -77.3923 0.00261595 -0.0053269 2.27374e-13 -3.3 0 -90.0002 1.61761e-14 -1.35174e-14 -0.5 -2.15 -0.8 -3.18055e-15 1.78906e-15 1.98785e-15 0 -7.75 -0.2 -78.7404 -1.42178 11.2301 -4.54747e-13 -3.8 -1.13687e-13 -27.5163 0.000105397 0.00528276 0 -3.4 -1.13687e-13 -90.0002 -0.000137329 -0.000198364 -0.75 -1.75 -1.85 -3.18055e-15 1.78906e-15 1.98785e-15 0 -7.15 -1 -54.2985 13.4794 10.7533 -2.27374e-13 -3 0 -83.6955 0.00251585 -0.00349741 5.68434e-14 -2.35 1.7053e-13 -90.0002 7.15625e-15 3.26007e-14 -5 17 0 7.29342 -1.99774 -2.47714 -6.45 0 -2.27374e-13 -2.23643 -0.608631 -3.80742 -6.45 5.68434e-14 2.27374e-13 -19.3066 -27.4241 31.4188 0 -32.4 -2 -136.337 -64.3537 -137.887 0 -25.65 2 -26.3367 -6.98956 -4.98356 0.5 -1.5 2.65 -20.8742 0.996351 13.4984 -3.41061e-13 -3.8 3.7 0.185307 43.8526 -0.0826201 -1.13687e-13 -3 2.7 0.0233505 68.7378 -0.0153055 0 -1.9 1.6 -1.59028e-15 0 9.54166e-15 -5.68434e-14 -8.3 1.9 14.729 15.1355 -2.14686 -1.13687e-13 -4.5 2.27374e-13 56.7268 -0.000116896 -0.00170405 0 -3.4 0 39.4077 8.53256e-05 0.00168397 0.25 -2.2 0.4 -1.59028e-15 0 9.54166e-15 -1.7053e-13 -8.3 1 12.2054 12.1936 -1.46766 0 -4.65 2.27374e-13 84.8131 -0.00242373 0.00462734 0 -3.3 -2.27374e-13 75.4195 -0.0023784 -0.00394697 0.5 -2.15 -0.8 -1.59028e-15 0 9.54166e-15 1.13687e-13 -7.75 -0.2 5.05626 6.43827 -0.355735 -1.42109e-13 -3.8 -2.27374e-13 75.0717 -0.00598013 0.00218984 0 -3.4 0 58.2798 -0.000894719 0.00164967 0.75 -1.75 -1.85 -1.59028e-15 0 9.54166e-15 0 -7.15 -1 2.16274 3.46471 -0.0973132 0 -3 1.13687e-13 41.512 -0.0033779 -0.00101671 -1.13687e-13 -2.35 -2.27374e-13 29.013 -7.626e-05 0.00506381 8 0 -2.27374e-13 -10.5105 -41.114 -9.37066 5.68434e-14 -45 -1 1.50663 52.1166 -3.38775 2.84217e-14 -41 -2 -3.75664 6.05099 24.9939 0 -7.5 12.5 2.48481e-16 7.95139e-16 3.18055e-15 0 1.42109e-14 4 -1.33043 -8.03631 24.1416 -8 -1.13687e-13 2.27374e-13 -15.4783 -46.2441 -12.9019 5.68434e-14 -45 -1 -9.99712 69.5613 15.1939 0 -41 -2 -1.9936 2.54866 24.7256 1.13687e-13 -7.5 12.5 2.78299e-15 0 -0 0 0 4 -4.03168 1.4307 32.2937 
-258.695 72.029 1660.09 -5.35654 17.1053 -177.851 1.13687e-13 8 2.27374e-13 4.59795 15.9946 -16.6803 0 8 -2.27374e-13 0.600982 9.30726 1.01656 1.13687e-13 8 2.27374e-13 0.315864 4.65839 0.519701 5.68434e-14 8 0 0.314866 4.64359 0.517998 0 17 2.27374e-13 -0.108705 11.836 -2.47272 5.68434e-14 10.8 0 0.639154 27.8357 -6.10015 5 17 -2.27374e-13 -0.313766 -2.28425 7.32881 6.45 0 2.27374e-13 -0.935231 0.72925 5.30794 6.45 5.68434e-14 0 56.5691 20.6998 1.93092 0 -32.4 -2 -82.8423 -67.5276 -101.609 0 -25.65 2 -7.10833 -9.61173 -21.3576 -0.5 -1.5 2.65 -2.08988 -31.1361 167.014 2.27374e-13 -3.8 3.7 -0.0606375 51.0642 0.0081175 0 -3 2.7 -0.0496968 67.4493 0.0459953 2.27374e-13 -1.9 1.6 -1.59028e-14 2.5842e-15 -1.98785e-15 0 -8.3 1.9 -57.7052 15.4455 9.97215 0 -4.5 -5.68434e-14 -70.2179 0.00640009 -0.0073067 -1.42109e-14 -3.4 0 -52.1345 0.000590887 0.006256 -0.25 -2.2 0.4 -1.59028e-14 2.5842e-15 -1.98785e-15 0 -8.3 1 -55.9298 9.93809 7.59473 0 -4.65 1.13687e-13 -77.3555 0.0026264 -0.00537391 2.27374e-13 -3.3 0 -90.0002 -1.88845e-14 -0 -0.5 -2.15 -0.8 -1.59028e-14 2.5842e-15 -1.98785e-15 0 -7.75 -0.2 -78.794 -1.41207 11.2404 -4.54747e-13 -3.8 1.13687e-13 -27.5433 0.000107179 0.00542953 0 -3.4 -1.13687e-13 -90.0002 -0.000137329 -0.000198364 -0.75 -1.75 -1.85 -1.59028e-14 2.5842e-15 -1.98785e-15 -2.27374e-13 -7.15 -1 -54.3624 13.4411 10.7501 -2.27374e-13 -3 0 -83.6939 0.00253129 -0.00348865 -2.84217e-14 -2.35 1.7053e-13 -90.0002 -1.05356e-14 2.78299e-14 -5 17 0 7.30518 -2.02777 -2.50278 -6.45 5.68434e-14 0 -2.23634 -0.608479 -3.80562 -6.45 -1.13687e-13 -2.27374e-13 -19.2664 -27.2705 31.4526 0 -32.4 -2 -136.323 -64.2383 -137.838 5.68434e-14 -25.65 2 -26.3114 -7.05326 -4.94451 0.5 -1.5 2.65 -20.9036 0.980023 13.5436 -1.13687e-13 -3.8 3.7 0.18518 43.8151 -0.0824963 -1.13687e-13 -3 2.7 0.0233689 68.7575 -0.0153407 0 -1.9 1.6 -3.18055e-15 -9.54166e-15 4.77083e-15 5.68434e-14 -8.3 1.9 14.7753 15.1355 -2.15387 -1.13687e-13 -4.5 2.27374e-13 56.6554 -0.000107722 -0.00171512 2.27374e-13 -3.4 0 39.3521 9.28019e-05 0.00165348 0.25 -2.2 0.4 -3.18055e-15 -9.54166e-15 4.77083e-15 -1.13687e-13 -8.3 1 12.2406 12.1913 -1.47026 0 -4.65 2.27374e-13 84.8056 -0.00245666 0.00462009 -2.27374e-13 -3.3 -1.13687e-13 75.4025 -0.00240816 -0.00395958 0.5 -2.15 -0.8 -3.18055e-15 -9.54166e-15 4.77083e-15 1.13687e-13 -7.75 -0.2 5.0678 6.41788 -0.355312 -8.52651e-14 -3.8 -3.41061e-13 75.084 -0.00596351 0.00216903 2.27374e-13 -3.4 0 58.2968 -0.000886595 0.00161503 0.75 -1.75 -1.85 -3.18055e-15 -9.54166e-15 4.77083e-15 -1.13687e-13 -7.15 -1 2.16329 3.43874 -0.0964977 0 -3 0 41.5129 -0.0033515 -0.000981655 0 -2.35 -1.13687e-13 29.0136 -6.63698e-05 0.00505415 8 0 0 -10.5372 -41.1303 -9.41706 2.84217e-14 -45 -1 1.50954 52.1441 -3.38996 2.84217e-14 -41 -2 -3.75762 6.0112 24.9924 -1.13687e-13 -7.5 12.5 2.48481e-16 6.95746e-16 3.18055e-15 -1.13687e-13 1.33227e-14 4 -1.30794 -8.00893 24.1446 -8 0 0 -15.4851 -46.2554 -12.9089 5.68434e-14 -45 -1 -9.99684 69.5542 15.1952 2.84217e-14 -41 -2 -1.98469 2.55462 24.7265 0 -7.5 12.5 2.78299e-15 -1.59028e-15 -3.18055e-15 0 0 4 -4.03899 1.43121 32.2962 
-258.696 72.0244 1660.08 -5.35507 17.0978 -177.854 1.13687e-13 8 0 4.5912 16.0041 -16.6755 0 8 2.27374e-13 0.592581 9.31093 1.03972 5.68434e-14 8 0 0.314487 4.65856 0.531093 0 8 2.27374e-13 0.313493 4.64378 0.529348 0 17 2.27374e-13 -0.0997579 11.845 -2.48286 0 10.8 4.54747e-13 0.665928 27.8563 -6.12918 5 17 -2.27374e-13 -0.319698 -2.30263 7.28204 6.45 -5.68434e-14 0 -0.935092 0.727826 5.3034 6.45 5.68434e-14 0 56.5549 20.7892 1.96713 -2.84217e-14 -32.4 -2 -83.1029 -67.4891 -101.91 -1.13687e-13 -25.65 2 -7.07243 -9.61208 -21.4965 -0.5 -1.5 2.65 -2.0987 -31.0837 167.119 0 -3.8 3.7 -0.0613251 51.0478 0.00867653 0 -3 2.7 -0.0495098 67.6114 0.0454648 -2.27374e-13 -1.9 1.6 1.27222e-14 -5.96354e-16 -1.78906e-15 0 -8.3 1.9 -57.7494 15.4497 9.98424 0 -4.5 0 -70.1986 0.0063381 -0.00721753 1.42109e-14 -3.4 5.68434e-14 -52.112 0.000971056 0.0062416 -0.25 -2.2 0.4 1.27222e-14 -5.96354e-16 -1.78906e-15 -2.27374e-13 -8.3 1 -55.962 9.93853 7.59923 -2.27374e-13 -4.65 5.68434e-14 -77.3456 0.00263714 -0.00542083 2.27374e-13 -3.3 0 -90.0002 1.83379e-14 -3.49861e-14 -0.5 -2.15 -0.8 1.27222e-14 -5.96354e-16 -1.78906e-15 0 -7.75 -0.2 -78.8336 -1.38437 11.2479 -4.54747e-13 -3.8 0 -27.5632 0.000109088 0.00558914 0 -3.4 -1.13687e-13 -90.0002 -0.000137329 -0.000198364 -0.75 -1.75 -1.85 1.27222e-14 -5.96354e-16 -1.78906e-15 0 -7.15 -1 -54.378 13.3882 10.725 -2.27374e-13 -3 0 -83.7233 0.0025469 -0.00347992 -2.84217e-14 -2.35 2.27374e-13 -90.0002 1.68967e-15 1.59028e-14 -5 17 0 7.3172 -2.05602 -2.54213 -6.45 5.68434e-14 0 -2.23624 -0.60834 -3.80124 -6.45 0 0 -19.2485 -27.1344 31.4492 0 -32.4 -2 -136.336 -64.1623 -137.835 0 -25.65 2 -26.2909 -7.11576 -4.91223 0.5 -1.5 2.65 -20.9414 0.972388 13.582 -1.13687e-13 -3.8 3.7 0.185022 43.7619 -0.0823515 2.27374e-13 -3 2.7 0.0233847 68.7733 -0.0153735 0 -1.9 1.6 -6.36111e-15 -9.54166e-15 3.18055e-15 0 -8.3 1.9 14.8287 15.1355 -2.16192 -1.13687e-13 -4.5 2.27374e-13 56.5523 -9.85055e-05 -0.00172615 0 -3.4 0 39.272 0.000100372 0.00162278 0.25 -2.2 0.4 -6.36111e-15 -9.54166e-15 3.18055e-15 -1.7053e-13 -8.3 1 12.2827 12.1888 -1.47489 0 -4.65 2.27374e-13 84.7952 -0.00248959 0.00461289 0 -3.3 -2.27374e-13 75.3793 -0.00243791 -0.00397222 0.5 -2.15 -0.8 -6.36111e-15 -9.54166e-15 3.18055e-15 2.27374e-13 -7.75 -0.2 5.08263 6.39947 -0.354942 -1.7053e-13 -3.8 -1.13687e-13 75.0602 -0.00594656 0.00214821 2.27374e-13 -3.4 0 58.2641 -0.000878467 0.00158093 0.75 -1.75 -1.85 -6.36111e-15 -9.54166e-15 3.18055e-15 -5.68434e-14 -7.15 -1 2.16414 3.4121 -0.0957514 5.68434e-14 -3 0 41.4626 -0.00332528 -0.000946795 1.13687e-13 -2.35 -1.13687e-13 28.9827 -5.66631e-05 0.00504414 8 -1.13687e-13 0 -10.5592 -41.1445 -9.46018 -2.84217e-14 -45 -1 1.51055 52.17 -3.38964 5.68434e-14 -41 -2 -3.76399 5.97703 25.0011 1.13687e-13 -7.5 12.5 2.60905e-16 8.44835e-16 -0 0 1.33227e-14 4 -1.28794 -7.98586 24.1342 -8 0 0 -15.4908 -46.2649 -12.9151 0 -45 -1 -9.99965 69.55 15.1995 5.68434e-14 -41 -2 -1.9783 2.55862 24.7273 1.13687e-13 -7.5 12.5 1.98785e-15 -3.18055e-15 3.18055e-15 0 0 4 -4.04778 1.43166 32.3019 
